<svg width="76" height="151" viewBox="0 0 76 151" fill="current" xmlns="http://www.w3.org/2000/svg">
<path d="M8.4165 150.833C6.2915 150.833 4.50901 150.113 3.06901 148.673C1.63401 147.238 0.916504 145.458 0.916504 143.333V23.3333C0.916504 21.2083 1.63401 19.4258 3.06901 17.9858C4.50901 16.5508 6.2915 15.8333 8.4165 15.8333H23.4165V0.833252H53.4165V15.8333H68.4165C70.5415 15.8333 72.3215 16.5508 73.7565 17.9858C75.1965 19.4258 75.9165 21.2083 75.9165 23.3333V143.333C75.9165 145.458 75.1965 147.238 73.7565 148.673C72.3215 150.113 70.5415 150.833 68.4165 150.833H8.4165ZM15.9165 45.8333H60.9165V30.8333H15.9165V45.8333Z" fill="current"/>
</svg>
