<svg width="20" height="20" viewBox="0 0 36 43" fill="none" xmlns="http://www.w3.org/2000/svg">
<path d="M20.9579 5.77845H8.0782V2.75723C8.0782 1.23443 9.571 0 11.4125 0H17.6234C19.4649 0 20.9577 1.23443 20.9577 2.75723L20.9579 5.77845Z" fill="#2B7B57"/>
<path d="M25.5222 38.1344H5.10445C2.56125 38.1344 0.499512 36.4295 0.499512 34.3264V8.46872C0.499512 6.36568 2.56125 4.66079 5.10445 4.66079H23.9316C26.4748 4.66079 28.5366 6.36568 28.5366 8.46872V35.6416C28.5366 37.0183 27.1869 38.1344 25.5222 38.1344Z" fill="#9FCBA5"/>
<path d="M0.499512 17.7397V34.3264C0.499512 36.4295 2.56125 38.1344 5.10445 38.1344L23.9316 38.1343C26.4748 38.1343 28.5366 36.4294 28.5366 34.3263V17.7397H0.499512Z" fill="#2B7B57"/>
<path d="M31.8805 37.7816C28.0283 40.9671 21.3481 40.9111 18.233 40.6816C17.2219 40.6071 16.4229 39.9465 16.3328 39.1103C16.0553 36.5343 15.9874 31.0103 19.8398 27.8249C23.6921 24.6394 30.3722 24.6954 33.4873 24.9248C34.4983 24.9994 35.2973 25.66 35.3875 26.4962C35.665 29.0721 35.7327 34.5961 31.8805 37.7816Z" fill="#49B86E"/>
<path d="M14.0456 42.5728C13.3569 42.0033 13.3569 41.0801 14.0456 40.5106L23.3662 32.8032C24.0549 32.2337 25.1713 32.2337 25.86 32.8032C26.5487 33.3727 26.5487 34.2959 25.86 34.8654L16.5394 42.5728C15.8507 43.1423 14.7343 43.1423 14.0456 42.5728Z" fill="#2B7B57"/>
</svg>
