<svg width="98" height="98" viewBox="0 0 98 98" fill="none" xmlns="http://www.w3.org/2000/svg">
<path opacity="0.3" d="M63.4958 44.9167L74.7658 24.5H25.1533L34.8308 44.9167H63.4958Z" fill="black"/>
<path d="M63.496 53.0832C66.5585 53.0832 69.2535 51.409 70.6418 48.8773L85.2602 22.3765C85.6043 21.7576 85.7808 21.0595 85.7723 20.3514C85.7639 19.6433 85.5706 18.9497 85.2117 18.3392C84.8529 17.7287 84.3408 17.2224 83.7262 16.8706C83.1116 16.5188 82.4158 16.3335 81.7077 16.3332H21.2743L17.436 8.1665H4.0835V16.3332H12.2502L26.9502 47.3257L21.4377 57.289C18.4568 62.7607 22.3768 69.4165 28.5835 69.4165H77.5835V61.2498H28.5835L33.0752 53.0832H63.496ZM25.1535 24.4998H74.766L63.496 44.9165H34.831L25.1535 24.4998ZM28.5835 73.4998C24.0918 73.4998 20.4577 77.1748 20.4577 81.6665C20.4577 86.1582 24.0918 89.8332 28.5835 89.8332C33.0752 89.8332 36.7502 86.1582 36.7502 81.6665C36.7502 77.1748 33.0752 73.4998 28.5835 73.4998ZM69.4168 73.4998C64.9252 73.4998 61.291 77.1748 61.291 81.6665C61.291 86.1582 64.9252 89.8332 69.4168 89.8332C73.9085 89.8332 77.5835 86.1582 77.5835 81.6665C77.5835 77.1748 73.9085 73.4998 69.4168 73.4998Z" fill="black"/>
</svg>
