<svg width="45" height="45" viewBox="0 0 40 36" fill="none" xmlns="http://www.w3.org/2000/svg">
<path d="M20 0C8.9407 0 0 8.04663 0 18C0 27.9534 8.9407 36 20 36C31.0593 36 40 27.9607 40 18C40 8.03926 31.0675 0 20 0ZM21.7014 32.9374V32.1718C21.7014 31.3325 20.9325 30.6405 20 30.6405C19.0675 30.6405 18.2986 31.3325 18.2986 32.1718V32.9374C10.4622 32.216 4.2045 26.584 3.41104 19.5387H4.17178C5.10429 19.5387 5.87321 18.8466 5.87321 18.0074C5.87321 17.1681 5.10429 16.4761 4.17178 16.4761H3.41104C4.21268 9.42331 10.4703 3.79141 18.2986 3.0773V3.7546C18.2986 4.59386 19.0675 5.28589 20 5.28589C20.9325 5.28589 21.7014 4.59386 21.7014 3.7546V3.06994C29.5378 3.79141 35.7955 9.42331 36.589 16.4687H35.7464C34.8139 16.4687 34.045 17.1607 34.045 18C34.045 18.8393 34.8139 19.5313 35.7464 19.5313H36.5971C35.7955 26.584 29.5378 32.216 21.7014 32.9374Z" fill="black"/>
<path d="M20 9.19509C19.0675 9.19509 18.2986 9.88712 18.2986 10.7264V17.4626L10.5521 26.0466C9.95501 26.7386 10.1268 27.6515 10.8057 28.189C11.7546 28.8147 12.7607 28.3436 13.1043 27.9607L21.3661 18.9202C21.5378 18.692 21.7096 18.3828 21.7096 18V10.7264C21.7014 9.87976 20.9407 9.19509 20 9.19509Z" fill="black"/>
</svg>
