<svg width="416" height="416" viewBox="0 0 416 416" fill="none" xmlns="http://www.w3.org/2000/svg">
<path d="M69.3334 312H104V346.667H312V69.3334H104V104H69.3334V52.0001C69.3334 47.403 71.1596 42.9942 74.4102 39.7436C77.6608 36.4929 82.0696 34.6667 86.6667 34.6667H329.333C333.93 34.6667 338.339 36.4929 341.59 39.7436C344.841 42.9942 346.667 47.403 346.667 52.0001V364C346.667 368.597 344.841 373.006 341.59 376.257C338.339 379.507 333.93 381.333 329.333 381.333H86.6667C82.0696 381.333 77.6608 379.507 74.4102 376.257C71.1596 373.006 69.3334 368.597 69.3334 364V312ZM104 190.667H225.333V225.333H104V277.333L17.3334 208L104 138.667V190.667Z" fill="black"/>
</svg>
