<svg width="56" height="56" viewBox="0 0 56 56" fill="none" xmlns="http://www.w3.org/2000/svg">
<path d="M35.2385 33.6701C35.6169 33.4822 35.9998 33.3006 36.3863 33.1241L33.5747 22.0749L8.38226 31.9751L11.439 55.9998H16.0951C16.6784 54.0443 18.5935 48.6274 23.2159 43.1234C26.5426 39.1621 30.5877 35.9816 35.2385 33.6701Z" fill="black"/>
<path d="M38.3541 35.1495C33.2617 37.3467 28.8898 40.5517 25.3069 44.8183C21.5145 49.3339 19.6752 53.823 18.9384 56H53.0522C54.2266 56 55.1821 55.0614 55.1821 53.9075V31.8074C49.0283 31.926 41.3774 33.8451 38.3541 35.1495Z" fill="black"/>
<path d="M53.0522 4.94591H43.9048L49.5305 29.5312C51.3618 29.3099 53.2461 29.1794 55.1821 29.1436V7.03828C55.1821 5.88453 54.2266 4.94591 53.0522 4.94591Z" fill="black"/>
<path d="M0 35.2006V53.9076C0 55.0612 0.955374 56 2.12992 56H8.70718L5.78041 32.9976L0 35.2006Z" fill="black"/>
<path d="M14.5373 24.225C16.8163 22.4115 23.6137 16.3722 23.6137 8.86931C23.6137 3.97864 19.5639 0 14.5861 0C9.60824 0 5.55856 3.97864 5.55856 8.86912C5.55856 17.109 12.2483 22.591 14.5373 24.225ZM9.76984 8.86912C9.76984 6.26012 11.9305 4.13721 14.5862 4.13721C17.242 4.13721 19.4026 6.25993 19.4026 8.86912C19.4026 11.4783 17.2418 13.601 14.5861 13.601C11.9303 13.601 9.76984 11.4783 9.76984 8.86912Z" fill="black"/>
<path d="M16.6918 8.86912C16.6918 7.72857 15.7472 6.80051 14.5862 6.80051C13.4253 6.80051 12.4807 7.72857 12.4807 8.86912C12.4807 10.0097 13.4251 10.9379 14.5861 10.9379C15.7472 10.9379 16.6918 10.0099 16.6918 8.86912Z" fill="black"/>
<path d="M26.3016 9.67556L29.8029 8.45751L29.3084 4.94591H25.6239C26.0766 6.17131 26.3244 7.49231 26.3244 8.86931C26.3244 9.14007 26.3156 9.40857 26.3016 9.67556Z" fill="black"/>
<path d="M0 21.596V32.401L13.8195 26.9701C13.2351 26.6094 9.20406 24.02 6.19592 19.4954L0 21.596Z" fill="black"/>
<path d="M31.7494 10.6053L25.8602 12.6541C24.34 18.879 19.4614 23.6292 16.9225 25.7506L34.0098 19.0357C34.3729 18.8926 34.7817 18.9112 35.13 19.0864C35.4786 19.2614 35.7331 19.5759 35.8279 19.949L38.9139 32.0767C41.4123 31.1368 44.0595 30.4199 46.8434 29.9295L41.1267 4.94591H32.0449L32.6395 9.1676C32.7278 9.79378 32.3559 10.3943 31.7494 10.6053Z" fill="black"/>
<path d="M2.84789 8.86912C2.84789 7.49212 3.09566 6.17112 3.54839 4.94572H2.13011C0.955757 4.94572 0.000191905 5.88434 0.000191905 7.03828V18.8258L4.83406 17.1441C3.65587 14.7759 2.84789 12.0085 2.84789 8.86912Z" fill="black"/>
</svg>
