<svg width="256" height="256" viewBox="0 0 256 256" fill="none" xmlns="http://www.w3.org/2000/svg">
<path opacity="0.2" d="M128.1 24C106.883 24 86.5345 32.4285 71.5316 47.4315C56.5286 62.4344 48.1001 82.7827 48.1001 104C48.1001 176 128.1 232 128.1 232C128.1 232 208.1 176 208.1 104C208.1 93.4943 206.031 83.0914 202.01 73.3853C197.99 63.6793 192.097 54.8601 184.669 47.4315C177.24 40.0028 168.421 34.11 158.715 30.0896C149.009 26.0693 138.606 24 128.1 24V24ZM128.1 136C121.771 136 115.584 134.123 110.322 130.607C105.059 127.091 100.958 122.093 98.536 116.246C96.114 110.399 95.4802 103.965 96.715 97.7571C97.9497 91.5497 100.997 85.8479 105.473 81.3726C109.948 76.8973 115.65 73.8496 121.857 72.6149C128.065 71.3801 134.499 72.0138 140.346 74.4359C146.193 76.8579 151.191 80.9594 154.707 86.2218C158.223 91.4841 160.1 97.671 160.1 104C160.1 112.487 156.729 120.626 150.728 126.627C144.726 132.629 136.587 136 128.1 136Z" fill="black"/>
<path d="M128.1 64C120.189 64 112.455 66.346 105.877 70.7412C99.2993 75.1365 94.1724 81.3836 91.1449 88.6927C88.1174 96.0017 87.3253 104.044 88.8687 111.804C90.4121 119.563 94.2217 126.69 99.8158 132.284C105.41 137.878 112.537 141.688 120.297 143.231C128.056 144.775 136.098 143.983 143.407 140.955C150.716 137.928 156.964 132.801 161.359 126.223C165.754 119.645 168.1 111.911 168.1 104C168.074 93.3995 163.851 83.2406 156.355 75.7449C148.859 68.2492 138.701 64.0264 128.1 64V64ZM128.1 128C123.353 128 118.713 126.592 114.766 123.955C110.82 121.318 107.744 117.57 105.927 113.184C104.11 108.799 103.635 103.973 104.561 99.3178C105.487 94.6623 107.773 90.3859 111.13 87.0294C114.486 83.673 118.762 81.3872 123.418 80.4612C128.073 79.5351 132.899 80.0104 137.285 81.8269C141.67 83.6434 145.418 86.7195 148.055 90.6663C150.693 94.6131 152.1 99.2532 152.1 104C152.074 110.357 149.537 116.446 145.042 120.941C140.546 125.437 134.457 127.974 128.1 128Z" fill="black"/>
<path d="M128.1 16C104.769 16.0265 82.4014 25.3064 65.9039 41.8038C49.4065 58.3013 40.1266 80.6691 40.1001 104C40.1001 135.4 54.6001 168.7 82.1001 200.2C94.4617 214.468 108.344 227.345 123.5 238.6C124.863 239.507 126.463 239.991 128.1 239.991C129.737 239.991 131.338 239.507 132.7 238.6C147.901 227.362 161.818 214.484 174.2 200.2C201.6 168.7 216.1 135.4 216.1 104C216.074 80.6691 206.794 58.3013 190.296 41.8038C173.799 25.3064 151.431 16.0265 128.1 16V16ZM128.1 222C111.6 209 56.1001 161.2 56.1001 104C56.1001 84.9044 63.6858 66.5909 77.1884 53.0883C90.691 39.5857 109.005 32 128.1 32C147.196 32 165.509 39.5857 179.012 53.0883C192.514 66.5909 200.1 84.9044 200.1 104C200.1 161.2 144.6 209 128.1 222Z" fill="black"/>
</svg>
