<svg width="36" height="35" viewBox="0 0 36 35" fill="none" xmlns="http://www.w3.org/2000/svg">
<path d="M17.9999 3.67897e-05C17.4262 3.67897e-05 16.8595 0.0854986 16.3169 0.221391C15.9996 0.301829 15.6936 0.40747 15.3876 0.531287C15.27 0.579468 15.1497 0.609685 15.0337 0.664099C14.9855 0.686525 14.9487 0.729181 14.901 0.752641C14.6131 0.895129 14.3313 1.06011 14.0599 1.23962C14.0216 1.26427 13.9648 1.25859 13.927 1.28389C13.8473 1.33863 13.7839 1.40316 13.7057 1.4609C13.4835 1.62042 13.2501 1.7669 13.0416 1.94795C12.8515 2.11895 12.6883 2.33385 12.5103 2.5234C11.9081 3.14093 11.3861 3.7943 10.9608 4.56C10.2306 5.83982 9.68551 7.28071 9.45573 8.76566C9.34481 8.74229 9.24309 8.73393 9.14576 8.76566C8.40187 9.00791 8.21855 10.421 8.70305 11.9088C8.98738 12.7819 9.46041 13.4693 9.94264 13.8567C10.5905 16.3753 11.9624 18.4748 13.7499 19.7895V21.25L12.3333 22.6667L9.49993 24.0834C7.20876 25.2181 4.92636 26.3571 2.63788 27.4919C1.36978 28.2569 0.879088 29.7585 0.99993 31.1667C1.05895 32.0535 0.738583 33.1883 1.61972 33.779C2.45683 34.2097 3.45558 33.9292 4.36451 34C7.02303 33.9986 9.67475 34 12.3333 34C16.1143 34.0015 19.8855 34 23.6666 34C27.0198 34 30.3632 34.0057 33.7164 34C34.8044 33.9235 35.1062 32.7746 34.9999 31.875C35.0198 30.5547 35.0977 29.0757 34.0706 28.067C33.2319 27.2142 32.0391 26.877 31.0163 26.2962C29.5132 25.5525 28.0016 24.8271 26.4999 24.0834L23.6666 22.6667L22.2499 21.25V19.7895C24.0378 18.4748 25.4091 16.3753 26.0579 13.8567C26.5396 13.4691 27.0128 12.7818 27.2961 11.9088C27.7806 10.421 27.5978 9.00791 26.8541 8.76566C26.7563 8.73393 26.6558 8.74229 26.5438 8.76566C26.3143 7.28071 25.7689 5.83982 25.0393 4.56C24.6143 3.7943 24.0916 3.14093 23.4895 2.5234C23.311 2.33385 23.1481 2.11895 22.9583 1.94795C22.9498 1.94016 22.9228 1.95575 22.9143 1.94795C22.359 1.45226 21.7428 1.07112 21.0996 0.752641C20.9367 0.672996 20.778 0.598876 20.6123 0.531287C20.4933 0.483106 20.3785 0.440252 20.2581 0.398474C19.8968 0.273128 19.5271 0.152598 19.1503 0.0885785C19.1219 0.0837547 19.0908 0.0930381 19.0624 0.0885785C18.7097 0.0331245 18.3612 -0.00385904 17.9999 3.67897e-05Z" fill="#34495E"/>
<path d="M0.99993 32.5834C1.03736 33.0084 1.17915 33.4333 1.61972 33.7166C2.45683 34.1416 3.45558 33.8584 4.36451 34H12.3333H23.6666H33.7164C34.5324 33.8584 34.9093 33.2917 34.9999 32.5834H0.99993Z" fill="#2C3E50"/>
</svg>
