<?xml version="1.0" encoding="iso-8859-1"?>
<!-- Generator: Adobe Illustrator 18.0.0, SVG Export Plug-In . SVG Version: 6.00 Build 0)  -->
<!DOCTYPE svg PUBLIC "-//W3C//DTD SVG 1.1//EN" "http://www.w3.org/Graphics/SVG/1.1/DTD/svg11.dtd">
<svg version="1.1" id="Capa_1" xmlns="http://www.w3.org/2000/svg" xmlns:xlink="http://www.w3.org/1999/xlink" x="0px" y="0px"
	 viewBox="0 0 339.131 339.131" style="enable-background:new 0 0 339.131 339.131;" xml:space="preserve">
<g>
	<path d="M238.471,47.438c-2.438,0-4.845,0.127-7.232,0.328v-21.37C231.239,11.841,219.398,0,204.843,0H41.711
		C27.156,0,15.315,11.841,15.315,26.396v286.338c0,14.555,11.841,26.396,26.396,26.396h163.132
		c14.555,0,26.396-11.841,26.396-26.396v-94.926c2.401,0.204,4.812,0.319,7.232,0.319c47.059,0,85.345-38.285,85.345-85.344
		C323.815,85.724,285.53,47.438,238.471,47.438z M101.311,25.249h38.179c4.694,0,8.5,3.806,8.5,8.5s-3.806,8.5-8.5,8.5h-38.179
		c-4.694,0-8.5-3.806-8.5-8.5S96.616,25.249,101.311,25.249z M131.777,304.682c0,4.694-3.806,8.5-8.5,8.5
		c-4.694,0-8.5-3.806-8.5-8.5v-8.501h17V304.682z M214.239,279.181H32.315V66.232c0-5.181,4.215-9.396,9.396-9.396h157.928
		c-27.582,14.156-46.511,42.87-46.511,75.947c0,10.11,1.752,19.982,5.213,29.395l-13.984,55.138
		c-0.866,3.417,0.13,7.037,2.622,9.529c1.899,1.899,4.452,2.929,7.072,2.929c0.818,0,1.644-0.101,2.458-0.307l57.731-14.64V279.181z
		 M238.471,198.127c-6.952,0-13.831-1.104-20.444-3.282c-1.806-0.595-3.743-0.662-5.585-0.195l-44.57,11.302l10.643-41.963
		c0.529-2.087,0.371-4.289-0.452-6.278c-3.275-7.923-4.935-16.31-4.935-24.928c0-36.031,29.313-65.345,65.343-65.345
		c36.031,0,65.345,29.313,65.345,65.345C303.815,168.814,274.502,198.127,238.471,198.127z"/>
	<path d="M240.057,123.186c-10.232-3.1-12.166-4.476-12.166-8.661c0-4.104,6.754-5.198,10.749-5.198
		c3.844,0,8.417,1.22,11.123,2.966c0.571,0.369,1.266,0.496,1.929,0.353c0.665-0.143,1.247-0.544,1.615-1.115l5.287-8.185
		c0.369-0.571,0.495-1.266,0.354-1.931c-0.145-0.665-0.545-1.247-1.116-1.616c-3.253-2.101-7.365-3.695-11.76-4.579V87.13
		c0-1.416-1.147-2.564-2.564-2.564l-9.745-0.001c0,0,0,0,0,0c-0.68,0-1.332,0.271-1.813,0.751c-0.482,0.481-0.752,1.133-0.752,1.813
		l-0.001,8.031c-11.12,2.235-18.18,9.657-18.18,19.365c0.002,16.012,13.678,20.153,22.728,22.895
		c9.965,3.018,11.376,4.325,11.349,7.593c0,0.825-0.192,1.801-1.605,2.779c-1.841,1.274-4.982,2.007-8.62,2.01
		c-0.018,0-0.038,0-0.058,0c-4.728-0.007-10.033-2.133-12.91-5.172c-0.972-1.029-2.595-1.074-3.625-0.1l-7.077,6.697
		c-1.028,0.974-1.074,2.597-0.101,3.625c4.474,4.728,11.112,8.125,18.099,9.334v7.813c0,1.416,1.148,2.564,2.564,2.564h9.745
		c1.416,0,2.564-1.148,2.564-2.564v-8.447c2.98-0.785,5.625-1.968,7.881-3.53c5.168-3.576,8.015-8.892,8.014-14.948
		C262.094,129.859,248.833,125.843,240.057,123.186z"/>
</g>
<g>
</g>
<g>
</g>
<g>
</g>
<g>
</g>
<g>
</g>
<g>
</g>
<g>
</g>
<g>
</g>
<g>
</g>
<g>
</g>
<g>
</g>
<g>
</g>
<g>
</g>
<g>
</g>
<g>
</g>
</svg>
