<svg width="167" height="167" viewBox="0 0 167 167" fill="current" xmlns="http://www.w3.org/2000/svg">
<path d="M83.4998 118.292C85.4714 118.292 87.1251 117.624 88.4611 116.288C89.7925 114.956 90.4582 113.305 90.4582 111.333V90.4584H111.507C113.479 90.4584 115.102 89.7904 116.378 88.4544C117.654 87.1231 118.292 85.4716 118.292 83.5001C118.292 81.5286 117.624 79.8748 116.288 78.5388C114.956 77.2074 113.305 76.5417 111.333 76.5417H90.4582V55.4928C90.4582 53.5213 89.7925 51.8977 88.4611 50.622C87.1251 49.3463 85.4714 48.7084 83.4998 48.7084C81.5283 48.7084 79.8769 49.3741 78.5455 50.7055C77.2095 52.0415 76.5415 53.6952 76.5415 55.6667V76.5417H55.4925C53.521 76.5417 51.8974 77.2074 50.6217 78.5388C49.346 79.8748 48.7082 81.5286 48.7082 83.5001C48.7082 85.4716 49.3739 87.1231 50.7052 88.4544C52.0412 89.7904 53.695 90.4584 55.6665 90.4584H76.5415V111.507C76.5415 113.479 77.2095 115.103 78.5455 116.378C79.8769 117.654 81.5283 118.292 83.4998 118.292V118.292ZM83.4998 153.083C73.8741 153.083 64.8283 151.256 56.3623 147.6C47.8964 143.949 40.5321 138.993 34.2696 132.73C28.0071 126.468 23.0505 119.104 19.3997 110.638C15.7442 102.172 13.9165 93.1258 13.9165 83.5001C13.9165 73.8744 15.7442 64.8286 19.3997 56.3626C23.0505 47.8966 28.0071 40.5324 34.2696 34.2699C40.5321 28.0074 47.8964 23.0484 56.3623 19.393C64.8283 15.7422 73.8741 13.9167 83.4998 13.9167C93.1255 13.9167 102.171 15.7422 110.637 19.393C119.103 23.0484 126.468 28.0074 132.73 34.2699C138.993 40.5324 143.949 47.8966 147.6 56.3626C151.255 64.8286 153.083 73.8744 153.083 83.5001C153.083 93.1258 151.255 102.172 147.6 110.638C143.949 119.104 138.993 126.468 132.73 132.73C126.468 138.993 119.103 143.949 110.637 147.6C102.171 151.256 93.1255 153.083 83.4998 153.083ZM83.4998 139.167C98.9241 139.167 112.059 133.746 122.905 122.905C133.746 112.059 139.167 98.9244 139.167 83.5001C139.167 68.0758 133.746 54.9408 122.905 44.095C112.059 33.254 98.9241 27.8334 83.4998 27.8334C68.0755 27.8334 54.9428 33.254 44.1018 44.095C33.256 54.9408 27.8332 68.0758 27.8332 83.5001C27.8332 98.9244 33.256 112.059 44.1018 122.905C54.9428 133.746 68.0755 139.167 83.4998 139.167Z" fill="black"/>
</svg>
