<svg width='current' height='current' viewBox="0 0 102 125" fill="none" xmlns="http://www.w3.org/2000/svg">
<path d="M0 90.9091V39.7727L13.8833 0H88.1167L102 39.7727V90.9091H85V79.5455H17V90.9091H0ZM15.8667 28.4091H86.1333L80.1833 11.3636H21.8167L15.8667 28.4091ZM11.3333 39.7727V68.1818V39.7727ZM25.5 62.5C27.8611 62.5 29.8671 61.6705 31.518 60.0114C33.1727 58.3561 34 56.3447 34 53.9773C34 51.6098 33.1727 49.5985 31.518 47.9432C29.8671 46.2841 27.8611 45.4545 25.5 45.4545C23.1389 45.4545 21.1329 46.2841 19.482 47.9432C17.8273 49.5985 17 51.6098 17 53.9773C17 56.3447 17.8273 58.3561 19.482 60.0114C21.1329 61.6705 23.1389 62.5 25.5 62.5ZM76.5 62.5C78.8611 62.5 80.8671 61.6705 82.518 60.0114C84.1727 58.3561 85 56.3447 85 53.9773C85 51.6098 84.1727 49.5985 82.518 47.9432C80.8671 46.2841 78.8611 45.4545 76.5 45.4545C74.1389 45.4545 72.1329 46.2841 70.482 47.9432C68.8273 49.5985 68 51.6098 68 53.9773C68 56.3447 68.8273 58.3561 70.482 60.0114C72.1329 61.6705 74.1389 62.5 76.5 62.5ZM56.6667 125L22.6667 107.955H45.3333V96.5909L79.3333 113.636H56.6667V125ZM11.3333 68.1818H90.6667V39.7727H11.3333V68.1818Z" fill="black"/>
</svg>
