<svg width="53" height="57" viewBox="0 0 53 57" fill="current" xmlns="http://www.w3.org/2000/svg">
<path d="M49.7813 13.5938L49.8125 13.5625L38.1875 1.9375L34.875 5.25L41.4688 11.8438C38.5313 12.9688 36.4375 15.7812 36.4375 19.125C36.4375 20.151 36.6396 21.1669 37.0322 22.1147C37.4248 23.0626 38.0003 23.9238 38.7257 24.6493C40.1909 26.1144 42.178 26.9375 44.25 26.9375C45.375 26.9375 46.4062 26.6875 47.375 26.2812V48.8125C47.375 49.6413 47.0458 50.4362 46.4597 51.0222C45.8737 51.6083 45.0788 51.9375 44.25 51.9375C43.4212 51.9375 42.6263 51.6083 42.0403 51.0222C41.4542 50.4362 41.125 49.6413 41.125 48.8125V34.75C41.125 33.0924 40.4665 31.5027 39.2944 30.3306C38.1223 29.1585 36.5326 28.5 34.875 28.5H31.75V6.625C31.75 4.9674 31.0915 3.37768 29.9194 2.20558C28.7473 1.03348 27.1576 0.375 25.5 0.375H6.75C5.0924 0.375 3.50268 1.03348 2.33058 2.20558C1.15848 3.37768 0.5 4.9674 0.5 6.625V56.625H31.75V33.1875H36.4375V48.8125C36.4375 50.8845 37.2606 52.8716 38.7257 54.3368C40.1909 55.8019 42.178 56.625 44.25 56.625C45.276 56.625 46.2919 56.4229 47.2397 56.0303C48.1876 55.6377 49.0488 55.0622 49.7743 54.3368C50.4997 53.6113 51.0752 52.7501 51.4678 51.8022C51.8604 50.8544 52.0625 49.8385 52.0625 48.8125V19.125C52.0625 16.9688 51.1875 15 49.7813 13.5938ZM44.25 22.25C43.4212 22.25 42.6263 21.9208 42.0403 21.3347C41.4542 20.7487 41.125 19.9538 41.125 19.125C41.125 18.2962 41.4542 17.5013 42.0403 16.9153C42.6263 16.3292 43.4212 16 44.25 16C45.0788 16 45.8737 16.3292 46.4597 16.9153C47.0458 17.5013 47.375 18.2962 47.375 19.125C47.375 19.9538 47.0458 20.7487 46.4597 21.3347C45.8737 21.9208 45.0788 22.25 44.25 22.25ZM13 47.25V33.1875H6.75L19.25 9.75V25.375H25.5L13 47.25Z" fill="current"/>
</svg>
